<?xml version="1.0" standalone="no"?>
<!DOCTYPE svg PUBLIC "-//W3C//DTD SVG 20010904//EN"
 "http://www.w3.org/TR/2001/REC-SVG-20010904/DTD/svg10.dtd">
<svg version="1.0" xmlns="http://www.w3.org/2000/svg"
 width="302.000000pt" height="302.000000pt" viewBox="0 0 302.000000 302.000000"
 preserveAspectRatio="xMidYMid meet">
<metadata>
Created by potrace 1.14, written by Peter Selinger 2001-2017
</metadata>
<g transform="translate(0.000000,302.000000) scale(0.100000,-0.100000)"
fill="#000000" stroke="none">
<path d="M2445 2520 c-8 -9 -15 -22 -15 -29 0 -7 -4 -10 -8 -7 -4 2 -8 -4 -9
-14 -4 -51 -76 -99 -154 -103 -19 -2 -40 -6 -48 -11 -9 -6 -12 -5 -8 1 3 5 0
10 -8 10 -8 0 -12 -4 -10 -7 3 -4 -8 -8 -23 -7 -15 0 -45 -4 -67 -8 -22 -4
-70 -7 -107 -8 -42 0 -65 -4 -61 -10 4 -6 1 -7 -8 -1 -18 11 -49 11 -73 1 -11
-6 -16 -5 -13 1 4 5 -7 9 -23 8 -17 -1 -30 -5 -30 -9 0 -4 -8 -3 -19 2 -10 6
-21 7 -25 4 -4 -4 -41 -8 -84 -9 -42 -1 -77 -3 -77 -4 0 -1 -34 -4 -75 -6 -41
-3 -88 -6 -105 -7 -16 -1 -36 -6 -42 -10 -8 -5 -13 -4 -13 3 0 7 -6 8 -18 1
-13 -7 -23 -6 -32 2 -7 7 -10 7 -7 1 4 -7 -11 -11 -45 -13 -28 -1 -54 -4 -59
-6 -4 -3 -11 -1 -14 5 -5 8 -11 8 -20 0 -8 -7 -42 -14 -77 -16 -35 -2 -83 -6
-108 -8 -25 -2 -83 -7 -130 -11 -109 -9 -121 -11 -145 -20 -26 -11 -46 -37
-40 -52 2 -7 1 -13 -3 -13 -12 0 -12 -39 -1 -46 6 -4 6 -11 -2 -20 -6 -8 -7
-14 -2 -14 5 0 9 -17 8 -37 0 -21 2 -42 5 -48 2 -5 6 -21 7 -35 4 -50 12 -115
14 -115 1 0 4 -18 6 -40 13 -126 18 -209 18 -282 -1 -46 2 -83 6 -83 3 0 9
-14 13 -32 3 -17 9 -29 12 -26 3 4 15 1 28 -5 15 -8 96 -12 254 -11 156 1 229
-2 225 -9 -4 -6 -1 -7 8 -1 20 12 240 13 232 1 -4 -6 -1 -7 8 -1 20 12 320 13
312 1 -4 -6 -1 -7 8 -1 8 4 44 9 82 10 75 2 97 -10 97 -53 0 -47 -72 -143
-107 -143 -8 0 -11 -4 -8 -10 3 -5 -2 -10 -12 -11 -37 -2 -135 -8 -197 -12
-35 -2 -69 -8 -76 -12 -9 -6 -11 -4 -5 6 8 12 6 12 -8 0 -12 -9 -17 -10 -17
-2 0 7 -4 9 -10 6 -14 -9 -77 -16 -157 -17 -50 -1 -70 -4 -66 -12 4 -7 1 -6
-7 1 -8 8 -20 9 -36 3 -13 -5 -24 -6 -24 -1 0 4 -7 8 -15 8 -8 0 -12 -3 -10
-7 2 -3 -32 -6 -76 -6 -43 1 -79 -1 -79 -4 0 -3 -30 -6 -68 -6 -173 -3 -195
-7 -225 -39 -15 -16 -23 -31 -17 -33 8 -3 7 -8 -1 -18 -8 -10 -8 -14 0 -14 6
0 11 -7 11 -16 0 -8 4 -12 10 -9 5 3 10 2 10 -2 0 -5 15 -7 33 -5 25 3 184 5
255 2 6 0 18 1 25 1 6 1 21 -2 31 -7 11 -4 17 -4 14 2 -4 5 4 9 17 9 13 0 21
-3 18 -8 -2 -4 79 -7 181 -7 102 0 187 4 190 8 3 4 23 8 45 7 23 -1 41 2 41 5
0 3 15 7 33 9 47 4 82 9 82 12 0 1 51 3 113 4 61 1 112 -2 112 -7 0 -4 9 -8
21 -8 11 0 29 -5 40 -11 17 -9 21 -7 26 10 3 12 9 21 14 21 5 0 9 9 9 19 0 11
4 22 10 26 5 3 7 12 3 20 -3 8 -1 15 5 15 6 0 13 18 17 40 4 25 11 38 17 33 6
-3 8 -2 5 4 -3 5 0 20 7 34 7 13 11 30 8 37 -2 6 1 12 7 12 6 0 11 12 11 26 0
14 4 23 9 19 6 -3 8 4 6 15 -2 11 0 20 6 20 5 0 9 11 9 25 0 14 4 25 9 25 8 0
26 66 23 83 -1 4 2 7 7 7 5 0 16 22 25 49 9 27 21 62 27 78 7 15 13 33 15 38
18 65 72 194 79 188 4 -5 5 -3 2 3 -4 7 0 28 8 47 8 19 11 37 8 41 -4 3 -1 6
5 6 7 0 11 3 10 8 -2 10 13 65 22 77 9 12 24 67 22 78 -1 4 2 7 8 7 5 0 10 10
10 23 0 13 5 28 12 35 7 7 8 12 3 12 -6 0 -5 4 2 8 6 4 13 16 15 27 3 20 10
31 36 60 6 7 12 18 12 24 0 6 6 11 14 11 8 0 16 7 20 15 3 8 9 14 13 13 4 -1
25 4 47 11 30 10 40 11 46 1 5 -8 10 -9 14 -1 4 7 15 7 31 1 16 -6 27 -6 31 1
4 6 10 7 18 0 18 -15 53 18 70 67 8 23 12 42 8 42 -4 0 -7 15 -7 32 1 63 -6
65 -221 65 -168 0 -196 -3 -209 -17z m-174 -314 c20 -8 36 -43 33 -72 -3 -49
-78 -164 -107 -164 -6 0 -7 -3 -4 -6 6 -7 -15 -26 -67 -58 -18 -12 -26 -13
-21 -5 6 11 5 12 -6 2 -17 -17 -103 -18 -93 -1 5 7 2 9 -7 6 -8 -3 -23 0 -33
8 -11 7 -23 11 -29 7 -6 -3 -7 -1 -3 5 4 7 3 12 -3 12 -15 0 -40 52 -42 87 -3
38 10 93 22 93 6 0 8 4 5 9 -7 11 45 55 69 58 11 1 65 5 120 7 55 3 101 10
103 15 3 10 36 8 63 -3z m-838 -70 c9 -7 17 -22 17 -33 0 -10 6 -25 13 -32 10
-11 10 -13 0 -7 -7 4 -13 2 -13 -3 0 -6 6 -11 13 -11 8 0 7 -4 -3 -10 -8 -5
-10 -10 -5 -10 6 0 11 -9 12 -20 1 -13 -2 -18 -10 -13 -9 5 -9 3 0 -8 10 -12
10 -18 0 -29 -10 -10 -9 -11 3 -5 13 8 13 7 0 -11 -39 -52 -45 -54 -139 -54
-71 0 -95 4 -111 17 -11 10 -20 23 -20 30 0 7 -4 13 -9 13 -5 0 -9 30 -9 67 0
59 3 70 27 93 27 27 81 35 110 16 10 -6 12 -5 7 2 -4 7 5 10 29 8 19 -2 38 0
41 5 7 13 26 11 47 -5z m342 -12 c18 -28 20 -84 3 -85 -10 0 -10 -2 0 -6 7 -3
12 -23 12 -49 0 -48 -30 -94 -61 -94 -10 0 -20 -4 -23 -8 -2 -4 -20 -9 -38
-10 -18 -2 -46 -4 -62 -6 -20 -3 -36 3 -51 18 -21 21 -22 26 -28 161 -3 84 26
105 150 103 75 -1 84 -3 98 -24z m-712 -52 c13 -14 18 -34 18 -81 1 -89 -14
-101 -126 -101 -58 0 -85 4 -85 12 0 6 -3 9 -6 5 -9 -9 -34 19 -34 37 0 9 -4
16 -9 16 -8 0 -6 52 4 78 2 6 -1 12 -8 12 -6 0 0 8 13 18 15 10 51 19 90 22
89 7 121 3 143 -18z m313 -261 c17 -1 67 -51 52 -51 -9 0 -9 -3 -2 -8 6 -4 10
-41 10 -89 -1 -77 -3 -85 -29 -108 -15 -14 -27 -21 -27 -15 0 6 -5 8 -12 3
-17 -10 -128 -11 -128 -1 0 4 -7 8 -15 8 -27 0 -39 57 -36 171 1 38 33 85 50
74 6 -3 11 -2 11 4 0 9 54 18 95 14 11 -1 25 -2 31 -2z m-343 -15 c11 1 16 0
13 -3 -3 -4 3 -12 14 -20 18 -13 20 -26 20 -114 0 -64 -4 -98 -10 -94 -5 3
-10 1 -10 -4 0 -6 -7 -11 -16 -11 -8 0 -13 -3 -11 -7 3 -5 -21 -8 -53 -8 -32
0 -56 3 -54 7 3 4 -4 8 -16 8 -36 0 -60 55 -60 136 0 86 16 107 85 109 25 1
48 5 52 8 3 4 11 3 17 -2 6 -5 19 -7 29 -5z m642 2 c30 5 64 -3 88 -22 24 -19
37 -157 17 -181 -7 -8 -9 -15 -5 -15 15 0 -38 -40 -54 -41 -55 -6 -88 -4 -100
5 -11 8 -13 8 -8 -1 5 -8 1 -8 -18 0 -13 7 -28 21 -33 32 -7 16 -9 128 -3 182
1 13 61 49 61 36 0 -4 6 -1 12 5 7 7 14 9 16 4 1 -5 14 -7 27 -4z m456 -38 c5
-24 -12 -100 -21 -95 -4 3 -11 -6 -14 -20 -4 -14 -11 -25 -16 -25 -6 0 -10 -5
-10 -10 0 -14 -51 -59 -67 -60 -7 0 -13 -4 -13 -8 0 -4 -12 -7 -27 -6 -27 1
-71 43 -56 53 13 9 11 75 -1 83 -7 5 -6 8 2 8 7 0 10 5 7 11 -12 18 -13 59 -2
52 6 -4 8 0 4 10 -12 31 32 48 112 44 43 -2 71 1 71 7 0 14 27 -26 31 -44z"/>
<path d="M2100 954 c0 -6 -13 -10 -30 -9 -16 1 -30 -2 -30 -7 0 -4 -7 -8 -16
-8 -19 0 -86 -69 -78 -81 3 -5 1 -9 -4 -9 -5 0 -10 -33 -11 -73 -2 -65 1 -76
22 -99 14 -15 22 -30 18 -34 -3 -4 2 -4 12 -1 9 4 17 3 17 -1 0 -4 11 -12 25
-19 16 -7 23 -7 18 -1 -4 7 -1 8 8 3 18 -12 120 -14 113 -3 -3 4 3 8 14 8 20
0 62 39 62 58 0 7 4 12 8 12 5 0 9 6 10 13 4 25 4 93 0 117 -5 26 -37 101 -38
87 0 -4 -10 1 -22 12 -11 11 -25 18 -30 15 -4 -3 -8 -1 -8 4 0 5 -10 9 -22 8
-13 -1 -26 3 -30 9 -5 7 -8 6 -8 -1z"/>
<path d="M825 889 c4 -5 0 -6 -8 -3 -21 8 -65 -13 -78 -38 -14 -25 -20 -178
-8 -178 4 0 11 -9 14 -20 4 -12 18 -23 36 -27 16 -3 27 -9 24 -13 -5 -9 95 -5
118 5 9 4 17 11 17 17 0 5 4 6 10 3 5 -3 12 6 16 20 3 13 10 22 15 19 8 -5 14
17 10 39 -1 4 3 16 9 26 5 10 6 21 2 25 -3 4 -7 19 -8 34 -1 15 -2 32 -3 37
-3 20 -29 46 -52 51 -45 10 -119 12 -114 3z"/>
</g>
</svg>
